<svg width="12" height="13" viewBox="0 0 12 13" fill="none" xmlns="http://www.w3.org/2000/svg">
<path opacity="0.987" fill-rule="evenodd" clip-rule="evenodd" d="M5.21666 0.0531562C5.85103 -0.0177187 6.22641 -0.0177187 6.90803 0.0531562C8.1146 0.231739 9.2331 0.789456 10.1018 1.64566C9.51476 2.20052 8.93546 2.7635 8.36403 3.33441C7.2697 2.40691 6.0482 2.19282 4.69953 2.69216C3.7102 3.14716 3.02128 3.88449 2.63278 4.90416C1.99792 4.43151 1.37132 3.94785 0.753281 3.45341C0.71033 3.4308 0.661273 3.42252 0.613281 3.42978C1.59503 1.53686 3.1292 0.411031 5.21578 0.0522812" fill="#F44336"/>
<path opacity="0.997" fill-rule="evenodd" clip-rule="evenodd" d="M0.609221 3.43101C0.658804 3.42343 0.705762 3.4313 0.750096 3.45464C1.36814 3.94908 1.99473 4.43274 2.6296 4.90539C2.52969 5.30269 2.46672 5.70837 2.44147 6.11726C2.46305 6.51276 2.52576 6.90097 2.6296 7.28189L0.656471 8.85251C-0.202779 7.05701 -0.218529 5.24985 0.609221 3.43101Z" fill="#FFC107"/>
<path opacity="0.999" fill-rule="evenodd" clip-rule="evenodd" d="M10.0043 10.7554C9.38997 10.2135 8.74679 9.7053 8.07759 9.23286C8.74843 8.75919 9.15559 8.10936 9.29909 7.28336H6.01172V5.00048C7.90755 4.98473 9.80251 5.00077 11.6966 5.04861C12.0559 6.99986 11.6409 8.75919 10.4515 10.3266C10.31 10.477 10.1602 10.62 10.0043 10.7554Z" fill="#448AFF"/>
<path opacity="0.993" fill-rule="evenodd" clip-rule="evenodd" d="M2.62937 7.28369C3.34687 9.06694 4.66229 9.89936 6.57562 9.78094C7.11273 9.71877 7.62768 9.53113 8.07887 9.23319C8.74854 9.70686 9.39079 10.2144 10.0056 10.7557C9.03144 11.6311 7.78935 12.1505 6.482 12.2292C6.18497 12.2529 5.88653 12.2529 5.5895 12.2292C3.36233 11.9667 1.71792 10.8414 0.65625 8.85344L2.62937 7.28369Z" fill="#43A047"/>
</svg>
