<svg version="1.1" id="Layer_1" xmlns="http://www.w3.org/2000/svg" xmlns:xlink="http://www.w3.org/1999/xlink" x="0px" y="0px"
	 width="100%" viewBox="0 0 220 217" enable-background="new 0 0 220 217" xml:space="preserve">
<path fill="#191819" opacity="1.000000" stroke="none" 
	d="
M126.000000,218.000000 
	C84.000000,218.000000 42.500004,218.000000 1.000005,218.000000 
	C1.000004,145.666672 1.000004,73.333344 1.000002,1.000015 
	C74.333321,1.000010 147.666641,1.000010 220.999969,1.000005 
	C220.999985,73.333321 220.999985,145.666641 221.000000,217.999969 
	C189.500000,218.000000 158.000000,218.000000 126.000000,218.000000 
M183.411453,40.409069 
	C183.411453,40.409069 183.286301,40.478653 182.698929,40.734394 
	C178.746628,44.693855 174.794342,48.653313 170.208679,52.885109 
	C166.456146,56.546608 162.703598,60.208103 158.311523,64.095764 
	C153.245941,69.076195 148.180359,74.056625 142.494522,79.279625 
	C140.650604,81.152817 138.806671,83.026009 136.330475,85.070572 
	C134.197723,86.547569 133.354233,88.146469 135.866714,90.668724 
	C136.243622,91.112770 136.620544,91.556816 137.001846,92.622246 
	C137.583389,93.451675 138.164932,94.281097 138.846970,95.815224 
	C140.618271,98.527008 142.389572,101.238800 144.160141,104.536331 
	C144.806717,105.468552 145.453308,106.400780 146.114914,107.752182 
	C146.114914,107.752182 146.465302,107.982750 146.551224,108.701576 
	C147.343338,109.865654 148.135468,111.029732 148.994492,112.883499 
	C151.980652,117.594543 154.966827,122.305580 158.041428,127.716202 
	C161.015045,132.481064 163.988678,137.245911 167.037216,142.717422 
	C169.614166,146.840469 172.191116,150.963516 174.835312,155.802414 
	C177.859146,160.617416 180.882996,165.432419 184.000961,170.926590 
	C186.525375,175.218994 189.049789,179.511398 190.555695,183.961777 
	C189.529266,184.052658 188.502853,184.143555 186.899643,183.963470 
	C176.660294,174.223541 166.431595,164.472382 156.179733,154.745667 
	C112.339142,113.150818 68.495941,71.558739 24.623945,29.997044 
	C23.459915,28.894310 21.956129,28.150213 20.182701,27.234203 
	C19.867384,27.458084 19.552069,27.681963 19.236752,27.905844 
	C19.622538,28.257181 20.008326,28.608519 20.730261,29.692383 
	C20.623806,30.474825 20.517349,31.257269 19.742313,32.371140 
	C19.493229,33.456680 19.026976,34.542080 19.026243,35.627789 
	C18.991520,87.030113 18.984116,138.432480 19.066769,189.834702 
	C19.069040,191.247528 20.088940,192.658722 21.594473,194.308105 
	C23.424793,194.342041 25.255108,194.405426 27.085432,194.405624 
	C80.902122,194.411346 134.718826,194.392532 188.535477,194.427414 
	C198.689911,194.434006 198.689850,194.530807 197.885468,183.092804 
	C197.998566,174.723297 198.111664,166.353790 198.969788,157.736526 
	C199.313751,156.701401 199.957199,155.666641 199.958481,154.631073 
	C200.010071,113.333786 200.022400,72.036369 199.911652,30.739311 
	C199.908371,29.516277 198.532166,28.296926 197.187683,27.318199 
	C194.821152,29.558559 192.454605,31.798922 189.502777,34.198021 
	C189.008499,34.818424 188.514221,35.438831 187.405121,36.242977 
	C186.104614,37.595131 184.804092,38.947281 183.411453,40.409069 
z"/>
<path fill="#FCFCFC" opacity="1.000000" stroke="none" 
	d="
M20.410892,32.039711 
	C20.517349,31.257269 20.623806,30.474825 20.709286,28.907574 
	C20.662470,27.828135 20.636629,27.533503 20.610786,27.238871 
	C21.956129,28.150213 23.459915,28.894310 24.623945,29.997044 
	C68.495941,71.558739 112.339142,113.150818 156.179733,154.745667 
	C166.431595,164.472382 176.660294,174.223541 187.339813,184.410843 
	C189.505295,186.433029 191.230591,188.007843 193.893478,190.438461 
	C193.510803,188.001587 193.274963,186.499695 193.381256,184.992676 
	C195.028152,184.658630 196.332870,184.329712 197.637589,184.000793 
	C198.689850,194.530807 198.689911,194.434006 188.535477,194.427414 
	C134.718826,194.392532 80.902122,194.411346 27.085432,194.405624 
	C25.255108,194.405426 23.424793,194.342041 21.136208,193.716492 
	C20.688419,146.731995 20.712017,100.339088 20.695803,53.946205 
	C20.693251,46.644009 20.510387,39.341873 20.410892,32.039711 
z"/>
<path fill="#FFFFFF" opacity="1.000000" stroke="none" 
	d="
M197.761536,183.546814 
	C196.332870,184.329712 195.028152,184.658630 193.160248,184.886978 
	C192.256134,184.458862 191.915161,184.131332 191.574203,183.803787 
	C189.049789,179.511398 186.525375,175.218994 184.014969,170.199738 
	C184.341919,165.964554 184.819946,162.457626 184.850220,158.946869 
	C184.857666,158.083374 183.546280,156.699066 182.596451,156.435196 
	C180.058014,155.729996 177.386612,155.503372 174.768051,155.086563 
	C172.191116,150.963516 169.614166,146.840469 167.361847,142.323761 
	C169.727692,138.931595 171.849014,135.981339 173.717743,132.878922 
	C173.977264,132.448074 173.147659,130.683975 172.556137,130.524597 
	C167.724152,129.222641 162.828964,128.155289 157.952988,127.016617 
	C154.966827,122.305580 151.980652,117.594543 148.981628,112.147522 
	C148.134293,110.268616 147.299789,109.125687 146.465302,107.982750 
	C146.465302,107.982750 146.114914,107.752182 146.472015,107.386902 
	C149.214157,103.152969 145.774094,104.345390 144.160873,103.950584 
	C142.389572,101.238800 140.618271,98.527008 139.089203,95.265617 
	C138.553452,93.810959 137.775452,92.905907 136.997452,92.000862 
	C136.620544,91.556816 136.243622,91.112770 136.164658,90.118591 
	C136.629318,88.012039 136.796036,86.455620 136.962753,84.899200 
	C138.806671,83.026009 140.650604,81.152817 143.202515,79.150864 
	C151.520569,78.126549 157.662628,72.493988 158.951050,63.869598 
	C162.703598,60.208103 166.456146,56.546608 170.669830,53.088268 
	C172.497437,55.938885 175.467377,56.664089 176.714706,54.676178 
	C179.464111,50.294342 181.160309,45.251663 183.286301,40.478653 
	C183.286301,40.478653 183.411453,40.409069 183.808044,40.521805 
	C185.476410,39.109444 186.748169,37.584343 188.019928,36.059235 
	C188.514221,35.438831 189.008499,34.818424 190.098175,34.258400 
	C192.983459,35.883419 195.273346,37.448059 197.696396,39.463139 
	C197.861115,69.803543 197.908539,99.693512 197.908142,129.583481 
	C197.908081,134.385300 197.694473,139.187103 197.226166,144.005463 
	C191.618790,148.126953 191.912491,152.759918 197.765594,156.328857 
	C198.007309,157.094315 198.116028,157.539307 198.224762,157.984283 
	C198.111664,166.353790 197.998566,174.723297 197.761536,183.546814 
M184.115646,120.785683 
	C178.624405,121.607727 178.032455,122.654236 179.984207,127.990036 
	C180.320206,128.908661 180.892960,129.922440 180.759430,130.801605 
	C179.880875,136.585785 178.838715,142.345123 177.841309,148.162674 
	C182.097260,149.932907 183.489944,148.161179 184.008469,144.730011 
	C184.570267,141.012421 184.749008,137.099121 189.675720,135.953400 
	C190.553787,135.749207 191.459351,133.457886 191.475494,132.119690 
	C191.563232,124.847031 188.710419,117.327141 193.580902,110.492104 
	C193.897339,110.048019 193.962646,109.037994 193.673553,108.608200 
	C190.074799,103.258118 191.129745,97.378036 192.084152,91.730721 
	C193.900192,80.984894 187.795212,70.350922 191.861984,59.629787 
	C191.958084,59.376446 191.435089,58.888260 190.960327,58.120804 
	C190.324432,58.995579 189.639465,59.549698 189.472885,60.230633 
	C188.470673,64.327545 187.833511,65.134262 183.977356,61.641674 
	C181.652832,59.536331 176.477859,60.578194 172.583755,60.205826 
	C172.444885,64.974449 168.539124,64.967422 166.211166,65.436279 
	C164.887772,68.099716 163.944016,70.073822 162.932175,72.012375 
	C162.086746,73.632164 161.161591,75.210365 160.271759,76.806984 
	C161.941406,77.204643 163.599045,77.665802 165.283600,77.984726 
	C167.676666,78.437782 170.729309,76.798447 172.027267,80.567764 
	C172.470932,81.856155 173.916931,82.799400 174.904968,83.900337 
	C175.702164,82.839508 176.465210,81.750450 177.309799,80.728798 
	C177.790527,80.147293 178.404480,79.675926 179.189285,78.937843 
	C179.901566,79.861755 180.855408,80.550117 180.775452,81.083511 
	C180.217804,84.803566 179.713608,88.576790 178.578964,92.137527 
	C178.240692,93.199059 175.779053,93.437614 174.592163,94.418526 
	C173.524307,95.301064 172.216766,96.652382 172.158356,97.852585 
	C171.995255,101.203781 170.372452,102.081200 167.346283,102.049431 
	C164.501099,102.019554 163.141708,101.081039 162.838013,98.052895 
	C162.703583,96.712494 161.173309,94.510300 160.144043,94.431488 
	C155.174988,94.051003 150.160812,94.260117 144.010147,94.260117 
	C147.458450,99.308136 149.263199,104.762108 152.867401,106.514038 
	C157.364517,108.699989 158.265656,111.019562 158.051178,115.192688 
	C157.914566,117.850754 157.890503,120.988838 161.789536,120.924278 
	C164.957626,120.871811 169.084641,122.599602 170.109177,117.151497 
	C170.330338,115.975418 171.983658,114.439133 173.193558,114.209839 
	C175.696182,113.735550 178.345566,114.073441 180.932190,113.996559 
	C185.919281,113.848320 186.884598,115.406921 184.115646,120.785683 
M192.880798,48.889328 
	C192.909668,47.912949 193.243698,46.803299 192.890198,45.993908 
	C192.448105,44.981617 191.361008,43.442535 190.694763,43.511276 
	C189.452225,43.639484 187.215195,45.182343 187.301605,45.409218 
	C188.072556,47.433559 189.261063,49.298866 190.326584,51.211018 
	C191.099228,50.673515 191.871887,50.136017 192.880798,48.889328 
M144.343750,90.168526 
	C145.120865,90.141525 145.897980,90.114525 146.675095,90.087524 
	C146.527557,89.527069 146.380005,88.966621 146.232468,88.406158 
	C145.550766,88.770157 144.869049,89.134155 144.343750,90.168526 
z"/>
<path fill="#030303" opacity="1.000000" stroke="none" 
	d="
M20.076603,32.205425 
	C20.510387,39.341873 20.693251,46.644009 20.695803,53.946205 
	C20.712017,100.339088 20.688419,146.731995 20.656124,193.597778 
	C20.088940,192.658722 19.069040,191.247528 19.066769,189.834702 
	C18.984116,138.432480 18.991520,87.030113 19.026243,35.627789 
	C19.026976,34.542080 19.493229,33.456680 20.076603,32.205425 
z"/>
<path fill="#0B0B0B" opacity="1.000000" stroke="none" 
	d="
M198.597275,157.860413 
	C198.116028,157.539307 198.007309,157.094315 197.899353,155.884003 
	C197.793274,151.408737 197.686432,147.698837 197.579590,143.988922 
	C197.694473,139.187103 197.908081,134.385300 197.908142,129.583481 
	C197.908539,99.693512 197.861115,69.803543 197.831879,39.020554 
	C197.821518,34.443642 197.808807,30.759748 197.796082,27.075857 
	C198.532166,28.296926 199.908371,29.516277 199.911652,30.739311 
	C200.022400,72.036369 200.010071,113.333786 199.958481,154.631073 
	C199.957199,155.666641 199.313751,156.701401 198.597275,157.860413 
z"/>
<path fill="#FCFCFC" opacity="1.000000" stroke="none" 
	d="
M157.997208,127.366409 
	C162.828964,128.155289 167.724152,129.222641 172.556137,130.524597 
	C173.147659,130.683975 173.977264,132.448074 173.717743,132.878922 
	C171.849014,135.981339 169.727692,138.931595 167.324387,141.970428 
	C163.988678,137.245911 161.015045,132.481064 157.997208,127.366409 
z"/>
<path fill="#FCFCFC" opacity="1.000000" stroke="none" 
	d="
M174.801682,155.444489 
	C177.386612,155.503372 180.058014,155.729996 182.596451,156.435196 
	C183.546280,156.699066 184.857666,158.083374 184.850220,158.946869 
	C184.819946,162.457626 184.341919,165.964554 183.967911,169.860168 
	C180.882996,165.432419 177.859146,160.617416 174.801682,155.444489 
z"/>
<path fill="#FCFCFC" opacity="1.000000" stroke="none" 
	d="
M182.992615,40.606522 
	C181.160309,45.251663 179.464111,50.294342 176.714706,54.676178 
	C175.467377,56.664089 172.497437,55.938885 170.986511,52.952099 
	C174.794342,48.653313 178.746628,44.693855 182.992615,40.606522 
z"/>
<path fill="#FCFCFC" opacity="1.000000" stroke="none" 
	d="
M158.631287,63.982681 
	C157.662628,72.493988 151.520569,78.126549 143.512650,79.029572 
	C148.180359,74.056625 153.245941,69.076195 158.631287,63.982681 
z"/>
<path fill="#FCFCFC" opacity="1.000000" stroke="none" 
	d="
M197.491882,27.197029 
	C197.808807,30.759748 197.821518,34.443642 197.698730,38.570114 
	C195.273346,37.448059 192.983459,35.883419 190.390808,34.179031 
	C192.454605,31.798922 194.821152,29.558559 197.491882,27.197029 
z"/>
<path fill="#2F2E2E" opacity="1.000000" stroke="none" 
	d="
M191.064941,183.882782 
	C191.915161,184.131332 192.256134,184.458862 192.818100,184.892105 
	C193.274963,186.499695 193.510803,188.001587 193.893478,190.438461 
	C191.230591,188.007843 189.505295,186.433029 187.628204,184.546326 
	C188.502853,184.143555 189.529266,184.052658 191.064941,183.882782 
z"/>
<path fill="#FCFCFC" opacity="1.000000" stroke="none" 
	d="
M187.712524,36.151108 
	C186.748169,37.584343 185.476410,39.109444 183.854126,40.466988 
	C184.804092,38.947281 186.104614,37.595131 187.712524,36.151108 
z"/>
<path fill="#FCFCFC" opacity="1.000000" stroke="none" 
	d="
M136.646606,84.984886 
	C136.796036,86.455620 136.629318,88.012039 136.160553,89.815201 
	C133.354233,88.146469 134.197723,86.547569 136.646606,84.984886 
z"/>
<path fill="#FCFCFC" opacity="1.000000" stroke="none" 
	d="
M144.160507,104.243454 
	C145.774094,104.345390 149.214157,103.152969 146.464493,107.177307 
	C145.453308,106.400780 144.806717,105.468552 144.160507,104.243454 
z"/>
<path fill="#FCFCFC" opacity="1.000000" stroke="none" 
	d="
M136.999649,92.311554 
	C137.775452,92.905907 138.553452,93.810959 139.038971,94.913269 
	C138.164932,94.281097 137.583389,93.451675 136.999649,92.311554 
z"/>
<path fill="#FCFCFC" opacity="1.000000" stroke="none" 
	d="
M146.508270,108.342163 
	C147.299789,109.125687 148.134293,110.268616 148.948181,111.802681 
	C148.135468,111.029732 147.343338,109.865654 146.508270,108.342163 
z"/>
<path fill="#030303" opacity="1.000000" stroke="none" 
	d="
M20.396744,27.236538 
	C20.636629,27.533503 20.662470,27.828135 20.541212,28.541311 
	C20.008326,28.608519 19.622538,28.257181 19.236752,27.905844 
	C19.552069,27.681963 19.867384,27.458084 20.396744,27.236538 
z"/>
<path fill="#FFFFFF" opacity="1.000000" stroke="none" 
	d="
M184.476898,120.593735 
	C186.884598,115.406921 185.919281,113.848320 180.932190,113.996559 
	C178.345566,114.073441 175.696182,113.735550 173.193558,114.209839 
	C171.983658,114.439133 170.330338,115.975418 170.109177,117.151497 
	C169.084641,122.599602 164.957626,120.871811 161.789536,120.924278 
	C157.890503,120.988838 157.914566,117.850754 158.051178,115.192688 
	C158.265656,111.019562 157.364517,108.699989 152.867401,106.514038 
	C149.263199,104.762108 147.458450,99.308136 144.010147,94.260117 
	C150.160812,94.260117 155.174988,94.051003 160.144043,94.431488 
	C161.173309,94.510300 162.703583,96.712494 162.838013,98.052895 
	C163.141708,101.081039 164.501099,102.019554 167.346283,102.049431 
	C170.372452,102.081200 171.995255,101.203781 172.158356,97.852585 
	C172.216766,96.652382 173.524307,95.301064 174.592163,94.418526 
	C175.779053,93.437614 178.240692,93.199059 178.578964,92.137527 
	C179.713608,88.576790 180.217804,84.803566 180.775452,81.083511 
	C180.855408,80.550117 179.901566,79.861755 179.189285,78.937843 
	C178.404480,79.675926 177.790527,80.147293 177.309799,80.728798 
	C176.465210,81.750450 175.702164,82.839508 174.904968,83.900345 
	C173.916931,82.799400 172.470932,81.856155 172.027267,80.567764 
	C170.729309,76.798447 167.676666,78.437782 165.283600,77.984726 
	C163.599045,77.665802 161.941406,77.204643 160.271759,76.806976 
	C161.161591,75.210365 162.086746,73.632164 162.932175,72.012375 
	C163.944016,70.073822 164.887772,68.099716 166.211166,65.436279 
	C168.539124,64.967422 172.444885,64.974449 172.583755,60.205826 
	C176.477859,60.578194 181.652832,59.536331 183.977356,61.641674 
	C187.833511,65.134262 188.470673,64.327545 189.472885,60.230633 
	C189.639465,59.549698 190.324432,58.995579 190.960327,58.120804 
	C191.435089,58.888260 191.958084,59.376446 191.861984,59.629787 
	C187.795212,70.350922 193.900192,80.984894 192.084152,91.730721 
	C191.129745,97.378036 190.074799,103.258118 193.673553,108.608200 
	C193.962646,109.037994 193.897339,110.048019 193.580902,110.492104 
	C188.710419,117.327141 191.563232,124.847031 191.475494,132.119690 
	C191.459351,133.457886 190.553787,135.749207 189.675720,135.953400 
	C184.749008,137.099121 184.570267,141.012421 184.008469,144.730011 
	C183.489944,148.161179 182.097260,149.932907 177.841309,148.162674 
	C178.838715,142.345123 179.880875,136.585785 180.759430,130.801605 
	C180.892960,129.922440 180.320206,128.908661 179.984207,127.990036 
	C178.032455,122.654236 178.624405,121.607727 184.476898,120.593735 
z"/>
<path fill="#FCFCFC" opacity="1.000000" stroke="none" 
	d="
M197.226166,144.005463 
	C197.686432,147.698837 197.793274,151.408737 197.766357,155.563507 
	C191.912491,152.759918 191.618790,148.126953 197.226166,144.005463 
z"/>
<path fill="#FFFFFF" opacity="1.000000" stroke="none" 
	d="
M192.762665,49.243923 
	C191.871887,50.136017 191.099228,50.673515 190.326584,51.211014 
	C189.261063,49.298866 188.072556,47.433559 187.301605,45.409218 
	C187.215195,45.182343 189.452225,43.639484 190.694763,43.511276 
	C191.361008,43.442535 192.448105,44.981617 192.890198,45.993908 
	C193.243698,46.803299 192.909668,47.912949 192.762665,49.243923 
z"/>
<path fill="#FFFFFF" opacity="1.000000" stroke="none" 
	d="
M144.265549,89.833336 
	C144.869049,89.134155 145.550766,88.770157 146.232468,88.406158 
	C146.380005,88.966621 146.527557,89.527069 146.675095,90.087524 
	C145.897980,90.114525 145.120865,90.141525 144.265549,89.833336 
z"/>
</svg>